<svg xmlns="http://www.w3.org/2000/svg" width="200" height="200" fill="none" viewBox="0 0 200 200"><g filter="url(#filter0_d_223_4033)"><path fill="url(#paint0_radial_223_4033)" d="M191 100C191 49.1898 149.81 8 99 8V8C48.1898 8 7 49.1898 7 100V100C7 150.81 48.1898 192 99 192V192C149.81 192 191 150.81 191 100V100Z"/></g><g filter="url(#filter1_d_223_4033)"><path fill="#fff" fill-rule="evenodd" d="M37 99.8718L61.7508 75.121L75.0418 88.412L63.5816 99.8722L98.9371 135.227L110.397 123.768L123.623 136.993L98.8719 161.744L37 99.8718ZM123.655 110.509L136.881 123.735L160.744 99.8718L98.8719 38L75.009 61.8628L88.3 75.1538L98.9371 64.5167L134.292 99.8722L123.655 110.509Z" clip-rule="evenodd"/></g><defs><filter id="filter0_d_223_4033" width="192" height="192" x="3" y="8" color-interpolation-filters="sRGB" filterUnits="userSpaceOnUse"><feFlood flood-opacity="0" result="BackgroundImageFix"/><feColorMatrix in="SourceAlpha" result="hardAlpha" type="matrix" values="0 0 0 0 0 0 0 0 0 0 0 0 0 0 0 0 0 0 127 0"/><feOffset dy="4"/><feGaussianBlur stdDeviation="2"/><feComposite in2="hardAlpha" operator="out"/><feColorMatrix type="matrix" values="0 0 0 0 0 0 0 0 0 0 0 0 0 0 0 0 0 0 0.25 0"/><feBlend in2="BackgroundImageFix" mode="normal" result="effect1_dropShadow_223_4033"/><feBlend in="SourceGraphic" in2="effect1_dropShadow_223_4033" mode="normal" result="shape"/></filter><filter id="filter1_d_223_4033" width="131.744" height="133.744" x="33" y="38" color-interpolation-filters="sRGB" filterUnits="userSpaceOnUse"><feFlood flood-opacity="0" result="BackgroundImageFix"/><feColorMatrix in="SourceAlpha" result="hardAlpha" type="matrix" values="0 0 0 0 0 0 0 0 0 0 0 0 0 0 0 0 0 0 127 0"/><feOffset dy="6"/><feGaussianBlur stdDeviation="2"/><feComposite in2="hardAlpha" operator="out"/><feColorMatrix type="matrix" values="0 0 0 0 0 0 0 0 0 0 0 0 0 0 0 0 0 0 0.25 0"/><feBlend in2="BackgroundImageFix" mode="normal" result="effect1_dropShadow_223_4033"/><feBlend in="SourceGraphic" in2="effect1_dropShadow_223_4033" mode="normal" result="shape"/></filter><radialGradient id="paint0_radial_223_4033" cx="0" cy="0" r="1" gradientTransform="translate(48.3281 142.766) scale(172.5)" gradientUnits="userSpaceOnUse"><stop stop-color="#C13338"/><stop offset=".2" stop-color="#BC3338"/><stop offset=".45" stop-color="#86383C"/><stop offset=".6" stop-color="#573D3F"/><stop offset=".75" stop-color="#3E3F41"/></radialGradient></defs></svg>