<svg xmlns="http://www.w3.org/2000/svg" width="200" height="200" fill="none" viewBox="0 0 200 200"><mask id="mask0_213_4107" style="mask-type:luminance" width="128" height="128" x="36" y="36" maskUnits="userSpaceOnUse"><path fill="#fff" d="M36 100C36 135.346 64.6538 164 100 164C135.346 164 164 135.346 164 100C164 64.6538 135.346 36 100 36C64.6538 36 36 64.6538 36 100Z"/></mask><g mask="url(#mask0_213_4107)"><path fill="url(#paint0_radial_213_4107)" d="M164 36H36V164H164V36Z"/><path fill="#fff" fill-rule="evenodd" d="M60 99.598L75.8405 83.7575L84.3466 92.2636L77.0121 99.5981L99.6395 122.225L106.974 114.891L115.438 123.355L99.598 139.196L60 99.598ZM115.459 106.406L123.924 114.87L139.196 99.598L99.598 60L84.3258 75.2722L92.8319 83.7783L99.6395 76.9707L122.267 99.5981L115.459 106.406Z" clip-rule="evenodd"/></g><defs><radialGradient id="paint0_radial_213_4107" cx="0" cy="0" r="1" gradientTransform="translate(65 130) scale(120)" gradientUnits="userSpaceOnUse"><stop stop-color="#C13338"/><stop offset=".1" stop-color="#BC3338"/><stop offset=".3" stop-color="#86383C"/><stop offset=".6" stop-color="#573D3F"/><stop offset=".75" stop-color="#3E3F41"/></radialGradient></defs></svg>